<svg xmlns="http://www.w3.org/2000/svg" width="640" height="360" viewBox="0 0 640 360" role="img" aria-labelledby="title desc">
  <title id="title">Casual games category</title>
  <desc id="desc">Abstract soft gamepad and colorful casual play shapes.</desc>
  <defs>
    <linearGradient id="bg" x1="0" y1="0" x2="1" y2="1">
      <stop offset="0" stop-color="#eef6ff"/>
      <stop offset="1" stop-color="#f5fffc"/>
    </linearGradient>
    <linearGradient id="pad" x1="0" y1="0" x2="1" y2="1">
      <stop offset="0" stop-color="#245cff"/>
      <stop offset="1" stop-color="#1bbfa6"/>
    </linearGradient>
  </defs>
  <rect width="640" height="360" rx="24" fill="url(#bg)"/>
  <circle cx="150" cy="98" r="64" fill="#ff705f" opacity="0.15"/>
  <circle cx="502" cy="270" r="78" fill="#1bbfa6" opacity="0.18"/>
  <path d="M220 132h200a76 76 0 0 1 76 76v8a68 68 0 0 1-68 68h-14l-42-54H268l-42 54h-14a68 68 0 0 1-68-68v-8a76 76 0 0 1 76-76z" fill="url(#pad)"/>
  <path d="M238 186h26v-26h28v26h26v28h-26v26h-28v-26h-26z" fill="#ffffff" opacity="0.86"/>
  <circle cx="396" cy="190" r="16" fill="#ffffff" opacity="0.88"/>
  <circle cx="440" cy="222" r="16" fill="#ffffff" opacity="0.68"/>
  <rect x="292" y="104" width="56" height="18" rx="9" fill="#102033" opacity="0.22"/>
</svg>
