<svg xmlns="http://www.w3.org/2000/svg" width="640" height="360" viewBox="0 0 640 360" role="img" aria-labelledby="title desc">
  <title id="title">New games category</title>
  <desc id="desc">Abstract glowing cards for new game discovery.</desc>
  <defs>
    <linearGradient id="bg" x1="0" y1="0" x2="1" y2="1">
      <stop offset="0" stop-color="#edf6ff"/>
      <stop offset="1" stop-color="#eafff9"/>
    </linearGradient>
    <linearGradient id="accent" x1="0" y1="0" x2="1" y2="1">
      <stop offset="0" stop-color="#245cff"/>
      <stop offset="1" stop-color="#1bbfa6"/>
    </linearGradient>
  </defs>
  <rect width="640" height="360" rx="24" fill="url(#bg)"/>
  <circle cx="520" cy="72" r="72" fill="#1bbfa6" opacity="0.22"/>
  <circle cx="118" cy="288" r="80" fill="#ff705f" opacity="0.15"/>
  <g transform="translate(112 78)">
    <rect width="128" height="178" rx="22" fill="#ffffff"/>
    <rect x="24" y="28" width="80" height="18" rx="9" fill="#245cff" opacity="0.2"/>
    <rect x="24" y="68" width="52" height="52" rx="13" fill="url(#accent)"/>
    <circle cx="96" cy="100" r="24" fill="#ff705f"/>
  </g>
  <g transform="translate(256 54)">
    <rect width="150" height="220" rx="24" fill="url(#accent)"/>
    <path d="M74 44l13 28 31 4-23 21 6 31-27-15-27 15 6-31-23-21 31-4z" fill="#ffffff" opacity="0.84"/>
    <rect x="38" y="154" width="74" height="20" rx="10" fill="#102033" opacity="0.4"/>
  </g>
  <g transform="translate(424 102)">
    <rect width="104" height="150" rx="20" fill="#ffffff"/>
    <rect x="24" y="36" width="56" height="56" rx="15" fill="#4a35c9"/>
    <circle cx="70" cy="110" r="14" fill="#1bbfa6"/>
  </g>
</svg>
