<svg xmlns="http://www.w3.org/2000/svg" width="640" height="360" viewBox="0 0 640 360" role="img" aria-labelledby="title desc">
  <title id="title">Puzzle games category</title>
  <desc id="desc">Abstract puzzle blocks arranged in a soft blue grid.</desc>
  <defs>
    <linearGradient id="bg" x1="0" y1="0" x2="1" y2="1">
      <stop offset="0" stop-color="#f3f7ff"/>
      <stop offset="1" stop-color="#eafefa"/>
    </linearGradient>
  </defs>
  <rect width="640" height="360" rx="24" fill="url(#bg)"/>
  <rect x="172" y="72" width="96" height="96" rx="18" fill="#245cff"/>
  <rect x="272" y="72" width="96" height="96" rx="18" fill="#1bbfa6"/>
  <rect x="372" y="72" width="96" height="96" rx="18" fill="#4a35c9"/>
  <rect x="172" y="172" width="96" height="96" rx="18" fill="#ff705f"/>
  <rect x="272" y="172" width="96" height="96" rx="18" fill="#ffffff"/>
  <rect x="372" y="172" width="96" height="96" rx="18" fill="#245cff" opacity="0.82"/>
  <circle cx="320" cy="220" r="24" fill="#102033" opacity="0.1"/>
  <path d="M210 108h20v20h20v20h-20v20h-20v-20h-20v-20h20z" fill="#ffffff" opacity="0.82"/>
  <circle cx="320" cy="120" r="24" fill="#ffffff" opacity="0.82"/>
  <path d="M418 98l13 26 29 4-21 20 5 28-26-13-26 13 5-28-21-20 29-4z" fill="#ffffff" opacity="0.82"/>
</svg>
