<svg xmlns="http://www.w3.org/2000/svg" width="640" height="360" viewBox="0 0 640 360" role="img" aria-labelledby="title desc">
  <title id="title">Web games category</title>
  <desc id="desc">Abstract browser window with bright game tiles.</desc>
  <defs>
    <linearGradient id="bg" x1="0" y1="0" x2="1" y2="1">
      <stop offset="0" stop-color="#eef6ff"/>
      <stop offset="1" stop-color="#f1fffb"/>
    </linearGradient>
  </defs>
  <rect width="640" height="360" rx="24" fill="url(#bg)"/>
  <rect x="92" y="72" width="456" height="230" rx="24" fill="#ffffff"/>
  <rect x="92" y="72" width="456" height="48" rx="24" fill="#102033"/>
  <circle cx="128" cy="96" r="7" fill="#ff705f"/>
  <circle cx="154" cy="96" r="7" fill="#ffd166"/>
  <circle cx="180" cy="96" r="7" fill="#1bbfa6"/>
  <rect x="132" y="152" width="108" height="98" rx="18" fill="#245cff"/>
  <rect x="266" y="152" width="108" height="98" rx="18" fill="#1bbfa6"/>
  <rect x="400" y="152" width="108" height="98" rx="18" fill="#ff705f"/>
  <path d="M177 183h20v20h20v20h-20v20h-20v-20h-20v-20h20z" fill="#ffffff" opacity="0.82"/>
  <circle cx="320" cy="201" r="26" fill="#ffffff" opacity="0.82"/>
  <path d="M454 178l14 28 30 4-22 21 5 30-27-14-27 14 5-30-22-21 30-4z" fill="#ffffff" opacity="0.82"/>
</svg>
