<svg xmlns="http://www.w3.org/2000/svg" width="1200" height="630" viewBox="0 0 1200 630" role="img" aria-labelledby="title desc">
  <title id="title">NewGames.ai discovery graphic</title>
  <desc id="desc">Abstract cards, stars, and game discovery shapes on a soft blue background.</desc>
  <defs>
    <linearGradient id="bg" x1="0" y1="0" x2="1" y2="1">
      <stop offset="0" stop-color="#edf6ff"/>
      <stop offset="0.55" stop-color="#f7fbff"/>
      <stop offset="1" stop-color="#eafff9"/>
    </linearGradient>
    <linearGradient id="card" x1="0" y1="0" x2="1" y2="1">
      <stop offset="0" stop-color="#245cff"/>
      <stop offset="1" stop-color="#1bbfa6"/>
    </linearGradient>
    <filter id="shadow" x="-20%" y="-20%" width="140%" height="140%">
      <feDropShadow dx="0" dy="18" stdDeviation="20" flood-color="#102033" flood-opacity="0.16"/>
    </filter>
  </defs>
  <rect width="1200" height="630" fill="url(#bg)"/>
  <circle cx="1010" cy="120" r="120" fill="#1bbfa6" opacity="0.18"/>
  <circle cx="180" cy="500" r="150" fill="#ff705f" opacity="0.13"/>
  <g filter="url(#shadow)">
    <rect x="150" y="125" width="250" height="320" rx="28" fill="#ffffff"/>
    <rect x="190" y="180" width="170" height="34" rx="17" fill="#245cff" opacity="0.18"/>
    <rect x="190" y="245" width="110" height="110" rx="24" fill="url(#card)"/>
    <circle cx="330" cy="300" r="40" fill="#ff705f" opacity="0.92"/>
  </g>
  <g filter="url(#shadow)">
    <rect x="450" y="85" width="300" height="380" rx="32" fill="url(#card)"/>
    <rect x="502" y="150" width="196" height="34" rx="17" fill="#ffffff" opacity="0.72"/>
    <rect x="510" y="235" width="70" height="70" rx="16" fill="#ffffff" opacity="0.8"/>
    <rect x="610" y="235" width="70" height="70" rx="16" fill="#ffffff" opacity="0.45"/>
    <rect x="560" y="330" width="88" height="30" rx="15" fill="#102033" opacity="0.5"/>
  </g>
  <g filter="url(#shadow)">
    <rect x="800" y="160" width="250" height="290" rx="28" fill="#ffffff"/>
    <path d="M885 278h78a44 44 0 0 1 44 44v2a42 42 0 0 1-42 42h-6l-24-34h-50l-24 34h-6a42 42 0 0 1-42-42v-2a44 44 0 0 1 44-44z" fill="#4a35c9"/>
    <circle cx="877" cy="322" r="10" fill="#1bbfa6"/>
    <circle cx="916" cy="322" r="10" fill="#1bbfa6"/>
    <circle cx="968" cy="316" r="9" fill="#ff705f"/>
    <circle cx="994" cy="338" r="9" fill="#245cff"/>
  </g>
  <text x="90" y="545" fill="#102033" font-family="Arial, sans-serif" font-size="64" font-weight="800">NewGames.ai</text>
  <text x="92" y="590" fill="#526071" font-family="Arial, sans-serif" font-size="30" font-weight="700">Discover New Games Worth Playing</text>
</svg>
